<svg xmlns="http://www.w3.org/2000/svg" width="610" height="970" viewBox="0 0 610 970">
    <!--背景色-->
    <rect x="0" y="0" width="610" height="970" />
    <!--コケッシー-->
    <path d="
        M 100 0
        L 510 0
        L 610 100
        L 610 510
        L 540 580
        L 610 650
        L 610 970
        L 0   970
        L 0   650
        L 70  580
        L 0   510
        L 0   100
        Z
    " fill="rgb(205, 153, 106)" />
    <!--名前-->
    <text
        x="50%"
        y="210"
        text-anchor="middle"
        dominant-baseline="central"
        font-size="60"
        font-family="メイリオ"
        font-weight="bold"
    >淵野アタリ</text>
    <!--ジャンル-->
    <text
        x="50%"
        y="370"
        text-anchor="middle"
        dominant-baseline="central"
        font-size="40"
        font-family="メイリオ"
    >靴紐作品</text>
    <text
        x="50%"
        y="430"
        text-anchor="middle"
        dominant-baseline="central"
        font-family="Arial"
        font-size="40"
    >JavaScript</text>
    <!--リンク-->
    <image
        href="./twitterIcon.svg"
        x="75"
        y="635"
        width="40"
        height="40"
    />
    <text
        x="130"
        y="655"
        dominant-baseline="central"
        font-size="40"
        font-family="Arial"
    >@hutinoatari</text>
    <image
        href="./githubIcon.png"
        x="75"
        y="705"
        width="40"
        height="40"
    />
    <text
        x="130"
        y="725"
        dominant-baseline="central"
        font-size="40"
        font-family="Arial"
    >hutinoatari</text>
    <image
        href="./house.svg"
        x="75"
        y="775"
        width="40"
        height="40"
    />
    <text
        x="130"
        y="795"
        dominant-baseline="central"
        font-size="40"
        font-family="Arial"
    >hutinoatari.dev</text>
    <image
        href="./mail.svg"
        x="75"
        y="845"
        width="40"
        height="40"
    />
    <text
        x="130"
        y="865"
        dominant-baseline="central"
        font-size="40"
        font-family="Arial"
    >hutinoatari@gmail.com</text>

    <!--断ち切り線-->
    <line x1="29" y1="0" x2="29" y2="970" stroke="green" stroke-width="2" />
    <line x1="581" y1="0" x2="581" y2="970" stroke="green" stroke-width="2" />
    <line x1="0" y1="29" x2="610" y2="29" stroke="green" stroke-width="2" />
    <line x1="0" y1="941" x2="610" y2="941" stroke="green" stroke-width="2" />
</svg>